# xmcd CD database file
#
# Track frame offsets:
#	150
#	12231
#	23493
#	37628
#	49364
#	58575
#	69469
#	84429
#	97152
#	111240
#
# Disc length: 1634 seconds
#
# Revision: 0
# Processed by: cddbd v1.5.1PL0 Copyright (c) Steve Scherf et al.
# Submitted via: CDex 1.51
#
DISCID=7706600a
DTITLE=Frankie laine - Grandes Exitos
DYEAR=1900
DGENRE=Country
TTITLE0=HIGH NOON
TTITLE1=MULE TRAIN
TTITLE2=THERE MUST BE A REASON
TTITLE3=STRANGE LADY IN TOWN
TTITLE4=RAWHIDE
TTITLE5=HUMMING BIRD
TTITLE6=JEZEBEL
TTITLE7=MOONLIGHY GAMBLER
TTITLE8=DON`T FENCE ME IN
TTITLE9=LOVE IS A GOLDEN RING
EXTD=
EXTT0=
EXTT1=
EXTT2=
EXTT3=
EXTT4=
EXTT5=
EXTT6=
EXTT7=
EXTT8=
EXTT9=
PLAYORDER=
